<?xml version="1.0" encoding="UTF-8"?>
<svg version="1.1" xmlns="http://www.w3.org/2000/svg" width="1024" height="1024">
<path d="M0 0 C337.92 0 675.84 0 1024 0 C1024 337.92 1024 675.84 1024 1024 C686.08 1024 348.16 1024 0 1024 C0 686.08 0 348.16 0 0 Z " fill="#FDFDFD" transform="translate(0,0)"/>
<path d="M0 0 C169.62 0 339.24 0 514 0 C514 171.93 514 343.86 514 521 C344.05 521 174.1 521 -1 521 C-1 445 -1 445 0 444 C8.25 444 16.5 444 25 444 C25 460.83 25 477.66 25 495 C178.12 495 331.24 495 489 495 C489 339.9 489 184.8 489 25 C335.55 25 182.1 25 24 25 C24 63.28 24 101.56 24 141 C16.08 141 8.16 141 0 141 C0 94.47 0 47.94 0 0 Z " fill="#F40286" transform="translate(384,247)"/>
<path d="M0 0 C6.27 0 12.54 0 19 0 C19.33 16.83 19.66 33.66 20 51 C21.65 49.35 23.3 47.7 25 46 C35.84652821 37.26643183 47.18080765 35.87820776 60.72900391 36.75 C72.46596237 38.04204961 83.39578541 45.35231368 90.875 54.25 C98.17733443 64.34337091 100.19145782 74.52140344 100.25 86.625 C100.270625 87.66785156 100.29125 88.71070313 100.3125 89.78515625 C100.3799028 103.28256733 95.76271975 114.38774443 86.68359375 124.41015625 C76.95499438 133.59702387 64.91003284 137.34831233 51.73828125 137.1484375 C38.1535069 136.41203033 28.84916478 132.30198896 19 123 C18.67 127.29 18.34 131.58 18 136 C12.06 136 6.12 136 0 136 C0 91.12 0 46.24 0 0 Z " fill="#F60387" transform="translate(525,392)"/>
<path d="M0 0 C10.28259203 9.77888397 15.11697607 21.02109803 15.59008789 35.07104492 C15.79108449 50.2020129 12.41190612 63.08997995 1.79296875 74.3671875 C-2.98460127 78.86588247 -7.6466839 82.52510088 -13.8125 84.82421875 C-14.52792969 85.12070312 -15.24335937 85.4171875 -15.98046875 85.72265625 C-27.93356889 89.86538412 -44.56974372 89.89451803 -56.28125 85.08203125 C-71.29349363 77.62224352 -79.27605652 68.40184968 -84.98046875 52.5859375 C-88.47578928 36.78315033 -86.41742253 21.62651315 -77.9375 7.94921875 C-70.08794273 -2.94851685 -60.77570734 -9.26844461 -47.46484375 -11.7109375 C-30.03837903 -13.92885119 -14.02018405 -10.84617016 0 0 Z " fill="#F50386" transform="translate(723.8125,441.17578125)"/>
<path d="M0 0 C5.65087822 5.02160447 7.79370292 10.89459196 10 18 C10.495 19.485 10.495 19.485 11 21 C11.08952331 23.16213393 11.1175854 25.32698411 11.11352539 27.4909668 C11.11367142 28.1448941 11.11381744 28.79882141 11.1139679 29.4725647 C11.11327188 31.63148326 11.10549408 33.79031528 11.09765625 35.94921875 C11.09579096 37.44708713 11.09436758 38.94495611 11.09336853 40.44282532 C11.08955207 44.38345019 11.0797292 48.32403814 11.06866455 52.26464844 C11.05843172 56.28645325 11.0538669 60.30826404 11.04882812 64.33007812 C11.03810616 72.2200709 11.02051639 80.11002661 11 88 C6.71 88 2.42 88 -2 88 C-2 83.71 -2 79.42 -2 75 C-2.66 75 -3.32 75 -4 75 C-4.25652344 75.598125 -4.51304687 76.19625 -4.77734375 76.8125 C-6.12396695 79.2217939 -7.35866861 80.36159605 -9.5625 82 C-10.18253906 82.474375 -10.80257812 82.94875 -11.44140625 83.4375 C-19.51700651 88.36916428 -26.0361092 89.63600801 -35.5 89.5 C-36.57636719 89.51546875 -37.65273438 89.5309375 -38.76171875 89.546875 C-45.73600368 89.51289554 -50.90994022 88.40248465 -57 85 C-58.5778125 84.13375 -58.5778125 84.13375 -60.1875 83.25 C-64.80489576 79.55608339 -68.81726404 74.54778723 -71 69 C-71.83039159 59.65809457 -71.50097214 51.75019843 -65.4375 44.3125 C-58.31244788 36.77737293 -49.08698824 34.39399627 -38.9034729 33.89785767 C-33.20648673 33.75479689 -27.51029638 33.81716543 -21.8125 33.875 C-20.08008331 33.88505239 -18.34766096 33.89417424 -16.61523438 33.90234375 C-12.41001414 33.92417251 -8.205071 33.95857701 -4 34 C-4.12131139 31.76252072 -4.2536509 29.52563758 -4.390625 27.2890625 C-4.46313477 26.04334473 -4.53564453 24.79762695 -4.61035156 23.51416016 C-5.26110867 17.64511389 -7.17628963 13.82371037 -11.3125 9.6875 C-17.99348511 5.49246284 -23.2664924 4.44692261 -31.0625 4.5 C-32.44598633 4.50422974 -32.44598633 4.50422974 -33.85742188 4.50854492 C-42.94382918 4.72145812 -50.95006391 6.74836964 -58.6875 11.73046875 C-59.450625 12.14941406 -60.21375 12.56835938 -61 13 C-64.33571429 11.88809524 -64.58417079 11.53679327 -66.1875 8.625 C-66.53167969 8.01914062 -66.87585938 7.41328125 -67.23046875 6.7890625 C-68 5 -68 5 -68 2 C-47.34065105 -9.42915362 -20.06152318 -16.28795452 0 0 Z " fill="#070707" transform="translate(297,439)"/>
</svg>
